<svg width="48.007" height="48" version="1.1" viewBox="0 0 12.702 12.7" xmlns="http://www.w3.org/2000/svg">
 <path d="m12.699 4.9079c0.092428 0.2974-3.0341 2.8655-3.1299 3.1618-0.093977 0.2906 0.96489 4.1276 0.71552 4.304-0.25428 0.1798-3.6628-2.0001-3.9743-1.9997-0.30541 4.21e-4 -3.6275 2.1932-3.8722 2.0105-0.24958-0.18627 0.77033-4.1016 0.67369-4.3977-0.094779-0.29033-3.2068-2.7722-3.1087-3.0614 0.10003-0.29493 4.1389-0.53484 4.3906-0.71824 0.24684-0.17986 1.6456-3.9065 1.9509-3.9026 0.3114 0.0039975 1.7877 3.7711 2.0399 3.9538 0.24733 0.17918 4.2238 0.35785 4.3144 0.6495z"/>
</svg>
