<svg width="48.007" height="48" version="1.1" viewBox="0 0 12.702 12.7" xmlns="http://www.w3.org/2000/svg">
 <g transform="translate(-58.958,-39.935)">
  <path transform="matrix(.26459 0 0 .26459 58.958 39.935)" d="m14.502 6.9863c-3.2698 0.012812-6.4397 1.2363-8.2539 3.2246v26.021c5.7471-2.4812 11.149-2.5226 16.24-0.03711v-26.021c-1.6478-2.0014-4.7039-3.2004-7.9863-3.1875zm19 0c-3.2848-0.012869-6.3395 1.1834-7.9863 3.1875v26.021c5.0935-2.4869 10.496-2.4465 16.246 0.03711v-26.014c-1.8129-1.9927-4.986-3.2196-8.2598-3.2324zm-30.279 4.6621c-1.4273 0.35315-2.4824 1.6285-2.4824 3.168v24.436c0 1.8137 1.4598 3.2734 3.2734 3.2734h39.977c1.8137 0 3.2734-1.4598 3.2734-3.2734v-24.436c0-1.5387-1.0564-2.812-2.4824-3.166v26.537a1.512 1.512 0 0 1-2.2207 1.3379c-6.8815-3.6508-12.127-3.7429-17.725-0.074219a1.512 1.512 0 0 1-0.07617 0.04492 1.512 1.512 0 0 1-0.0078 0.0039 1.512 1.512 0 0 1-0.11719 0.06055 1.512 1.512 0 0 1-0.02344 0.0098 1.512 1.512 0 0 1-0.10547 0.04102 1.512 1.512 0 0 1-0.04102 0.01367 1.512 1.512 0 0 1-0.13086 0.03516 1.512 1.512 0 0 1-0.11914 0.02148 1.512 1.512 0 0 1-0.05273 0.0078 1.512 1.512 0 0 1-0.0918 0.0059 1.512 1.512 0 0 1-0.06445 2e-3 1.512 1.512 0 0 1-0.06641-2e-3 1.512 1.512 0 0 1-0.08984-0.0059 1.512 1.512 0 0 1-0.06055-0.0078 1.512 1.512 0 0 1-0.0918-0.01563 1.512 1.512 0 0 1-0.05469-0.01367 1.512 1.512 0 0 1-0.09375-0.02539 1.512 1.512 0 0 1-0.04297-0.01563 1.512 1.512 0 0 1-0.10938-0.04297 1.512 1.512 0 0 1-0.01172-0.0059 1.512 1.512 0 0 1-0.12891-0.06445 1.512 1.512 0 0 1-0.08008-0.04687c-5.598-3.6686-10.851-3.5765-17.732 0.074229a1.512 1.512 0 0 1-2.2207-1.3379zm11.492 0.51953c2.5025-0.0066 4.941 0.6878 6.4004 2.3105a0.94872 0.94872 0 1 1-1.4102 1.2695c-0.89822-0.99874-2.8611-1.6971-4.9824-1.6914-2.1213 0.0056-4.3384 0.67926-5.7148 1.9492a0.94498 0.94498 0 1 1-1.2754-1.3867c1.85-1.7069 4.48-2.4448 6.9824-2.4512zm18.604 0c2.5025 0.0066 5.1324 0.7443 6.9824 2.4512a0.94548 0.94548 0 1 1-1.2852 1.3867c-1.3764-1.27-3.5838-1.9435-5.7051-1.9492-2.1213-0.0056-4.092 0.69267-4.9902 1.6914a0.94594 0.94594 0 1 1-1.4023-1.2695c1.4594-1.6227 3.8979-2.3169 6.4004-2.3105zm-18.604 5.1895c2.5025-0.0066 4.941 0.6878 6.4004 2.3105a0.94872 0.94872 0 0 1-1.4102 1.2695c-0.89822-0.99874-2.8611-1.6971-4.9824-1.6914-2.1213 0.0056-4.3384 0.67926-5.7148 1.9492a0.94498 0.94498 0 1 1-1.2754-1.3867c1.85-1.7069 4.48-2.4448 6.9824-2.4512zm18.604 0c2.5025 0.0066 5.1324 0.7443 6.9824 2.4512a0.94548 0.94548 0 1 1-1.2852 1.3867c-1.3764-1.27-3.5838-1.9435-5.7051-1.9492-2.1213-0.0056-4.092 0.69266-4.9902 1.6914a0.94594 0.94594 0 1 1-1.4023-1.2695c1.4594-1.6227 3.8979-2.3169 6.4004-2.3105zm-18.602 4.8789c2.5025-0.0066 4.939 0.6878 6.3984 2.3105a0.94621 0.94621 0 1 1-1.4082 1.2617c-0.89822-0.99874-2.8631-1.6873-4.9844-1.6816-2.1213 0.0056-4.3365 0.67731-5.7129 1.9473a0.94498 0.94498 0 1 1-1.2773-1.3867c1.85-1.7069 4.4819-2.4448 6.9844-2.4512zm18.602 0c2.5025 0.0066 5.1324 0.7443 6.9824 2.4512a0.94548 0.94548 0 1 1-1.2852 1.3867c-1.3764-1.27-3.5838-1.9416-5.7051-1.9473-2.1213-0.0056-4.092 0.6829-4.9902 1.6816a0.94498 0.94498 0 1 1-1.4023-1.2617c1.4594-1.6227 3.8979-2.3169 6.4004-2.3105zm-18.602 4.6211c2.5025-0.0066 4.939 0.6878 6.3984 2.3105a0.94621 0.94621 0 1 1-1.4082 1.2617c-0.89822-0.99874-2.8631-1.6873-4.9844-1.6816-2.1213 0.0056-4.3365 0.67731-5.7129 1.9473a0.94498 0.94498 0 1 1-1.2773-1.3867c1.85-1.7069 4.4819-2.4448 6.9844-2.4512zm18.602 0c2.5025 0.0066 5.1324 0.7443 6.9824 2.4512a0.94548 0.94548 0 1 1-1.2852 1.3867c-1.3764-1.27-3.5838-1.9416-5.7051-1.9473-2.1213-0.0056-4.092 0.6829-4.9902 1.6816a0.94498 0.94498 0 1 1-1.4023-1.2617c1.4594-1.6227 3.8979-2.3169 6.4004-2.3105z" stroke-linecap="round" stroke-linejoin="round" stroke-width="1.7008" style="paint-order:fill markers stroke"/>
 </g>
</svg>
