<svg width="48.007" height="48" version="1.1" viewBox="0 0 12.702 12.7" xmlns="http://www.w3.org/2000/svg">
 <path d="m5.1617 0.22045c-0.85588 0-1.5442 0.68929-1.5442 1.5452v0.83051h-2.6921c-0.39059 0-0.70491 0.31433-0.70491 0.70491v2.6921h0.83052c0.85588 0 1.5452 0.68929 1.5452 1.5452 0 0.85587-0.68929 1.5442-1.5452 1.5442h-0.83052v2.6921c0 0.39059 0.31433 0.70492 0.70491 0.70492h2.6921v-0.83052c0-0.85587 0.68831-1.5452 1.5442-1.5452 0.85588 0 1.5452 0.68929 1.5452 1.5452v0.83052h2.6921c0.39059 0 0.70491-0.31433 0.70491-0.70492v-2.6921h0.83052c0.85588 0 1.5452-0.68929 1.5452-1.5452 0-0.85587-0.68929-1.5442-1.5452-1.5442h-0.83052v-2.6921c0-0.39059-0.31433-0.70491-0.70491-0.70491h-2.6921v-0.83051c0-0.85587-0.68929-1.5452-1.5452-1.5452z"  stroke-linecap="round" stroke-linejoin="round" stroke-width=".45" style="paint-order:fill markers stroke"/>
</svg>
