<svg width="48.007" height="48" version="1.1" viewBox="0 0 12.702 12.7" xmlns="http://www.w3.org/2000/svg">
 <path d="m5.9788-7.3952e-5c-0.19577 0-0.35337 0.1576-0.35337 0.35337v5.272h-5.272c-0.19577 0-0.35337 0.1576-0.35337 0.35337v0.74401c0 0.19577 0.1576 0.35337 0.35337 0.35337h5.272v5.272c0 0.19577 0.1576 0.35337 0.35337 0.35337h0.74401c0.19577 0 0.35337-0.1576 0.35337-0.35337v-5.272h5.2725c0.19577 0 0.35337-0.1576 0.35337-0.35337v-0.74401c0-0.19577-0.1576-0.35337-0.35337-0.35337h-5.2725v-5.272c0-0.19577-0.1576-0.35337-0.35337-0.35337z" fill-rule="evenodd" style="paint-order:fill markers stroke"/>
</svg>
