<svg width="48.007" height="48" version="1.1" viewBox="0 0 12.702 12.7" xmlns="http://www.w3.org/2000/svg">
 <g transform="translate(-58.958,-39.935)">
  <path d="m67.178 39.935c-0.15983 0.0307-0.11136 0.0076-0.18056 0.08926-0.07813 0.16601-0.02221-0.0019-0.06234 0.18657-0.0129 0.06773-0.0285 0.15953-0.04623 0.27058-0.03548 0.2221-0.07921 0.5205-0.12285 0.8435-0.04564 0.33787-0.08991 0.63681-0.12585 0.85476-0.01796 0.10898-0.03389 0.19797-0.04646 0.25964-0.0039 0.01957-0.0067 0.03059-0.0099 0.04399-0.01279 0.0069-0.03253 0.01814-0.07435 0.03219-0.0945 0.03173-0.25787 0.07589-0.51456 0.1399-0.29643 0.07393-0.48093 0.12425-0.60414 0.17456-0.06161 0.02516-0.11107 0.04036-0.16587 0.10954-0.0274 0.03459-0.05266 0.0977-0.04421 0.1575 0.0084 0.05976 0.03931 0.09885 0.06362 0.12317 0.03156 0.03158 0.03939 0.02996 0.0471 0.0338 0.0077 0.0038 0.01227 0.0056 0.01643 0.0073 0.0083 0.0033 0.01432 0.0055 0.02103 0.0077 0.01341 0.0045 0.0285 0.0091 0.0471 0.01449 0.0372 0.01091 0.08752 0.02491 0.14871 0.04141 0.12236 0.03301 0.28761 0.07591 0.46745 0.12113 0.1772 0.04456 0.34264 0.08931 0.46435 0.12478 0.05687 0.01657 0.10169 0.03056 0.13486 0.04163 0.01051 0.04018 0.02482 0.11007 0.04259 0.21715 0.03602 0.21701 0.08706 0.58309 0.16704 1.1835 0.06239 0.46822 0.10068 0.73494 0.13991 0.89596 0.01962 0.08051 0.02036 0.13526 0.0986 0.21028 0.03912 0.03751 0.12707 0.06659 0.18829 0.05139 0.06123-0.01519 0.0889-0.04405 0.11008-0.06523 0.0069-0.0069 0.02889-0.03274 0.04066-0.05623 0.01177-0.02347 0.01709-0.04254 0.02188-0.0619 0.0096-0.03872 0.01725-0.08487 0.03004-0.1708 0.02557-0.17188 0.06885-0.49692 0.15418-1.138 0.06874-0.51656 0.11006-0.80631 0.14172-0.95915 0.01451-0.07006 0.02653-0.10307 0.0324-0.11695 0.0066-0.0023 0.0029-5.8e-4 0.0249-0.0073 0.0355-0.01086 0.08536-0.0252 0.14462-0.04163 0.11853-0.03287 0.2751-0.07421 0.43967-0.11555 0.29965-0.07527 0.47576-0.12192 0.5918-0.16812 0.05802-0.0231 0.10681-0.03309 0.16211-0.11104 0.02765-0.03898 0.04547-0.11098 0.03165-0.16565-0.01383-0.05468-0.04146-0.08437-0.06223-0.10461-0.03185-0.03102-0.04134-0.03059-0.05138-0.03551-0.01005-5e-3 -0.01775-0.0081-0.02575-0.01126-0.01601-0.0062-0.03254-0.01194-0.05225-0.01835-0.03942-0.0128-0.09025-0.02779-0.15117-0.04495-0.12184-0.03433-0.28314-0.0767-0.45673-0.11941-0.19348-0.04763-0.35294-0.09119-0.46488-0.12628-0.05597-0.01755-0.10025-0.03312-0.12832-0.04452-0.0039-0.0016-0.0049-0.0031-0.0084-0.0051 0.0078 0.0027-0.01431-0.04277-0.04903-0.25545-0.04138-0.25335-0.10246-0.70305-0.20696-1.4957-0.03092-0.23459-0.05597-0.3976-0.08315-0.51359-0.01358-0.05799-0.02618-0.10361-0.04935-0.15042-0.01159-0.0234-0.02564-0.04824-0.05332-0.07499-0.02769-0.02675-0.07716-0.05565-0.13261-0.05793zm-4.8206 2.5093c-0.14638 0.04266-0.26306 0.25795-0.28303 0.35931-0.02054 0.10781-0.04572 0.25582-0.07435 0.43505-0.05726 0.35846-0.12803 0.84118-0.19859 1.3635-0.07402 0.54795-0.14578 1.0328-0.20428 1.3873-0.02925 0.17727-0.05525 0.32225-0.07606 0.42443-0.0104 0.05109-0.01968 0.09168-0.02661 0.11812-0.0015 0.0054-3e-3 0.0078-5e-3 0.01255 0.0094-0.01547-0.02255 0.02161-0.17617 0.07317-0.15951 0.05355-0.42487 0.12509-0.84135 0.22895-0.47875 0.11939-0.77728 0.20184-0.96377 0.27798-0.09325 0.03807-0.1617 0.06451-0.22498 0.14441-0.03164 0.03995-0.05843 0.10823-0.04925 0.17316 0.0092 0.06493 0.04307 0.10926 0.07252 0.13872 0.03172 0.03173 0.03994 0.03024 0.04818 0.03433 0.0082 0.0041 0.01345 0.0062 0.01846 0.0082 0.01001 4e-3 0.01848 0.0068 0.02822 0.01008 0.01947 0.0064 0.04318 0.01368 0.07263 0.02232 0.0589 0.01726 0.13986 0.03981 0.2385 0.06641 0.19729 0.05321 0.46446 0.12259 0.7552 0.19569 0.2881 0.07245 0.55684 0.14502 0.75574 0.20299 0.09945 0.02898 0.1818 0.05444 0.23828 0.0736 0.01558 0.0054 0.02316 0.0084 0.03433 0.01255 0.0055 0.01244 0.01183 0.02538 0.01899 0.05246 0.01873 0.07091 0.04246 0.18903 0.07188 0.36628 0.05884 0.35451 0.14143 0.94745 0.27101 1.92 0.10095 0.75768 0.16381 1.191 0.22445 1.4398 0.03032 0.12439 0.04103 0.20328 0.12971 0.28828 0.04433 0.0425 0.13762 0.07303 0.20449 0.05644 0.06687-0.01658 0.10049-0.04974 0.1281-0.07735 0.0087-0.0087 0.03238-0.03641 0.04582-0.06319s0.02052-0.05057 0.02725-0.07779c0.01349-0.05443 0.0259-0.12847 0.04646-0.26661 0.0411-0.27628 0.11138-0.80319 0.24955-1.8414 0.11137-0.83684 0.17787-1.3055 0.23078-1.5608 0.02646-0.12766 0.05074-0.2011 0.06588-0.23206 0.01514-0.03096 0.0064-0.01782 0.01643-0.02318-0.03176 0.01699 0.02543-9e-3 0.08443-0.02703 0.059-0.01806 0.14035-0.04157 0.23689-0.06834 0.19308-0.05356 0.44727-0.12062 0.71454-0.18776 0.48436-0.12167 0.77008-0.1985 0.94467-0.268 0.08729-0.03475 0.15258-0.05464 0.21458-0.14205 0.03099-0.04371 0.04986-0.12031 0.03487-0.1796-0.01498-0.0593-0.04596-0.09361-0.07167-0.11866-0.03254-0.0317-0.04331-0.03207-0.05536-0.03798-0.01205-0.0058-0.02245-0.01019-0.03369-0.01459-0.02249-0.0088-0.0479-0.01759-0.07865-0.02758-0.06147-0.01997-0.14293-0.04421-0.24075-0.07178-0.19566-0.05514-0.45599-0.12343-0.7361-0.19237-0.31479-0.07748-0.57449-0.14843-0.75928-0.20632-0.0924-0.02895-0.16634-0.0548-0.21629-0.07511-0.0237-0.0096-0.04257-0.02147-0.05364-0.02822 0.0032-8.31e-4 -0.04116-0.08536-0.10493-0.47593-0.06754-0.41363-0.16635-1.1417-0.3356-2.4255-0.04992-0.37868-0.09069-0.64145-0.13282-0.82129-0.02107-0.08993-0.04093-0.15839-0.07157-0.22026-0.01532-0.03094-0.02972-0.07338-0.06127-0.10386-0.04447-0.02811-0.09772-0.06631-0.14784-0.05171zm7.2109 4.4839c-0.15611 0.02961-0.11149 0.0095-0.17681 0.08701-0.07432 0.15294-0.02625 0.02045-0.05986 0.1767-0.0118 0.06188-0.02612 0.14545-0.04227 0.24655-0.03231 0.2022-0.07209 0.47373-0.11179 0.76765-0.0415 0.30721-0.08171 0.57906-0.11437 0.77709-0.01634 0.09901-0.0308 0.17984-0.04216 0.2356-0.0029 0.01418-0.0047 0.02102-0.0071 0.03164-0.01142 0.0061-0.02496 0.01436-0.05922 0.02585-0.085 0.02854-0.23344 0.06872-0.46681 0.12692-0.26982 0.06729-0.43771 0.11292-0.55168 0.15943-0.05698 0.02325-0.1037 0.03668-0.15728 0.10428-0.02679 0.03381-0.0518 0.09618-0.04345 0.15525 0.0083 0.05902 0.03878 0.09745 0.06234 0.12102 0.03154 0.03156 0.03925 0.02989 0.04689 0.03369 0.0077 0.0038 0.01219 0.0056 0.01619 0.0072 8e-3 0.0032 0.01368 0.0052 0.01995 0.0072 0.01254 0.0042 0.02632 0.0084 0.04335 0.01341 0.03405 0.01 0.07988 0.02273 0.13561 0.03776 0.11144 0.03008 0.26184 0.06914 0.4255 0.11029 0.16103 0.04049 0.31141 0.08112 0.42186 0.1133 0.04798 0.01397 0.08405 0.0254 0.11351 0.03508 0.0093 0.03649 0.02137 0.09469 0.0368 0.18775 0.03268 0.19696 0.07906 0.53 0.15182 1.0761 0.05675 0.426 0.09143 0.66844 0.12757 0.81668 0.01806 0.07411 0.01748 0.12538 0.0942 0.19891 0.03835 0.03677 0.12543 0.06562 0.18582 0.05064 0.0604-0.01498 0.08725-0.04327 0.1075-0.06352 0.0066-0.0066 0.02838-0.03216 0.03992-0.05515s0.01661-0.04132 0.02114-0.05955c0.0091-0.03645 0.01592-0.07853 0.02758-0.15686 0.02331-0.15665 0.06273-0.45229 0.14033-1.0354 0.06252-0.46983 0.10007-0.73349 0.12864-0.8714 0.01233-0.05954 0.02165-0.08404 0.02672-0.09699 0.0098-0.0039 8.31e-4 1.09e-4 0.0147-0.0042 0.03207-0.0098 0.07729-0.02284 0.1311-0.03776 0.10763-0.02985 0.24997-0.06747 0.39955-0.10503 0.2727-0.0685 0.43269-0.11084 0.5402-0.15364 0.05375-0.02141 0.10018-0.02996 0.1545-0.10654 0.02716-0.03829 0.04497-0.10951 0.03133-0.16351-0.01364-0.05393-0.04079-0.08293-0.06084-0.10246-0.03181-0.03105-0.04109-0.03051-0.05086-0.0353-0.0098-0.0048-0.01704-0.0078-0.02456-0.01073-0.01507-0.0058-0.03039-0.01107-0.0485-0.01695-0.0362-0.01176-0.08255-0.02555-0.13808-0.04119-0.11108-0.0313-0.25791-0.06979-0.41596-0.10868-0.1758-0.04326-0.32054-0.08286-0.42185-0.11458-0.04794-0.01501-0.08438-0.02792-0.10944-0.03787-0.0056-0.02264-0.02547-0.08428-0.04882-0.22713-0.03758-0.22997-0.09314-0.639-0.18818-1.36-0.02815-0.21355-0.05089-0.36197-0.07585-0.46863-0.01248-0.05333-0.02407-0.09561-0.04614-0.14023-0.01103-0.02231-0.02448-0.0463-0.0516-0.07252-0.02713-0.02622-0.07602-0.05493-0.13089-0.05718z" stroke-width=".054932"/>
 </g>
</svg>
