<svg width="48.007" height="48" version="1.1" viewBox="0 0 12.702 12.7" xmlns="http://www.w3.org/2000/svg">
 <path d="m6.3358 0.26799a0.32881 0.33332 0 0 0-0.0972 0.0207l-6.0213 2.2362a0.32881 0.33332 0 0 0-0.21543 0.34927v6.9884a0.32881 0.33332 0 0 0 0.21543 0.31277l6.0118 2.2328a0.32881 0.33332 0 0 0 8e-3 3e-3l9.79e-4 6.88e-4a0.32881 0.33332 0 0 0 0.0252 8e-3 0.32881 0.33332 0 0 0 0.0231 6e-3 0.32881 0.33332 0 0 0 0.01 2e-3 0.32881 0.33332 0 0 0 6e-3 6.88e-4 0.32881 0.33332 0 0 0 0.0985 0 0.32881 0.33332 0 0 0 0.0265-5e-3 0.32881 0.33332 0 0 0 6e-3 -9.79e-4 0.32881 0.33332 0 0 0 0.0259-8e-3 0.32881 0.33332 0 0 0 6e-3 -2e-3 0.32881 0.33332 0 0 0 6.88e-4 -7.14e-4 0.32881 0.33332 0 0 0 7e-3 -3e-3l6.0118-2.2334a0.32881 0.33332 0 0 0 0.21543-0.31276v-6.9898a0.32881 0.33332 0 0 0-0.21543-0.34791l-6.0186-2.2362a0.32881 0.33332 0 0 0-0.12844-0.0207zm0.0157 0.68686 5.0624 1.8828-5.0624 1.8849-5.0651-1.8849zm5.6896 2.3616v6.0694l-5.3607-1.9937v-2.0833zm-11.381 7.144e-4 5.3627 1.9916v2.0833l-5.3627 1.9937zm5.3627 4.7831v3.5224l-4.7355-1.7609zm0.65785 0 4.7334 1.7616-4.7334 1.7609z"/>
</svg>
