<svg width="48.007" height="48" version="1.1" viewBox="0 0 12.702 12.7" xmlns="http://www.w3.org/2000/svg">
 <path d="m5.8027 0.24993c-0.42596 0-0.76972 0.34376-0.76972 0.76973v1.7672a3.8032 3.8032 0 0 0-0.27098 0.11305l-1.2502-1.2502c-0.3012-0.3012-0.78606-0.3012-1.0873 0l-0.77471 0.77471c-0.3012 0.3012-0.3012 0.78606 0 1.0873l1.2485 1.2485a3.8032 3.8032 0 0 0-0.11139 0.27265h-1.7672c-0.42596 0-0.76973 0.34376-0.76973 0.76972v1.0956c0 0.42596 0.34376 0.76972 0.76973 0.76972h1.7655a3.8032 3.8032 0 0 0 0.11471 0.27098l-1.2502 1.2502c-0.3012 0.3012-0.3012 0.78606 0 1.0873l0.77471 0.77471c0.3012 0.3012 0.78606 0.3012 1.0873 0l1.2485-1.2485a3.8032 3.8032 0 0 0 0.27264 0.11138v1.7672c0 0.42596 0.34376 0.76972 0.76973 0.76972h1.0956c0.42596 0 0.76972-0.34376 0.76972-0.76972v-1.7655a3.8032 3.8032 0 0 0 0.27098-0.11471l1.2502 1.2502c0.3012 0.3012 0.78606 0.3012 1.0873 0l0.77472-0.77471c0.3012-0.30121 0.3012-0.78606 0-1.0873l-1.2502-1.2502a3.8032 3.8032 0 0 0 0.11139-0.27098h1.7689c0.42596 0 0.76972-0.34376 0.76973-0.76972v-1.0956c0-0.42596-0.34376-0.76972-0.76973-0.76972h-1.7672a3.8032 3.8032 0 0 0-0.11305-0.27098l1.2502-1.2502c0.3012-0.3012 0.3012-0.78606 0-1.0873l-0.77471-0.77471c-0.3012-0.3012-0.78606-0.3012-1.0873 0l-1.2502 1.2502a3.8032 3.8032 0 0 0-0.27098-0.11139v-1.7689c0-0.42596-0.34376-0.76973-0.76972-0.76973zm0.54695 4.236a1.8657 1.8657 0 0 1 1.8653 1.8653 1.8657 1.8657 0 0 1-1.8653 1.8653 1.8657 1.8657 0 0 1-1.8653-1.8653 1.8657 1.8657 0 0 1 1.8653-1.8653z" stroke-linecap="round" stroke-linejoin="round" stroke-width=".45" style="paint-order:fill markers stroke"/>
</svg>
