<svg width="48.007" height="48" version="1.1" viewBox="0 0 12.702 12.7" xmlns="http://www.w3.org/2000/svg">
 <path d="m5.759 2.0534e-4c-0.3295-3e-8 -0.58916 0.25909-0.58916 0.5886v1.9099a0.24317 0.24317 0 0 1-0.15804 0.2284c-0.093281 0.034753-0.18387 0.072078-0.2742 0.11392a0.24317 0.24317 0 0 1-0.27475-0.048585l-1.3509-1.3509c-0.23323-0.23324-0.59824-0.23325-0.83152 0l-0.83767 0.83767c-0.23324 0.23323-0.23325 0.5988 0 0.83208l1.3486 1.3486a0.24317 0.24317 0 0 1 0.050818 0.27196c-0.041315 0.090905-0.079765 0.1826-0.11392 0.27643a0.24317 0.24317 0 0 1-0.2284 0.16083h-1.9099c-0.3295 0-0.58916 0.25911-0.58916 0.5886v1.1839c-3e-8 0.3295 0.25965 0.58916 0.58916 0.58916h1.9082a0.24317 0.24317 0 0 1 0.22785 0.15581c0.035307 0.093306 0.073741 0.18669 0.11616 0.27699a0.24317 0.24317 0 0 1-0.048584 0.2742l-1.3509 1.3509c-0.23324 0.23323-0.23325 0.59824 0 0.83152l0.83767 0.83767c0.23323 0.23324 0.59824 0.23326 0.83152 0l1.3486-1.3509a0.24317 0.24317 0 0 1 0.27252-0.048027c0.090903 0.041309 0.1826 0.079773 0.27643 0.11392a0.24317 0.24317 0 0 1 0.16027 0.22785v1.9099c0 0.3295 0.25965 0.58916 0.58916 0.58916h1.1839c0.3295 1e-6 0.58916-0.25966 0.58916-0.58916v-1.9076a0.24317 0.24317 0 0 1 0.15581-0.22841c0.093307-0.03531 0.18613-0.073183 0.27643-0.1156a0.24317 0.24317 0 0 1 0.27475 0.048027l1.3509 1.3509c0.23324 0.23324 0.59824 0.23326 0.83152 0l0.83767-0.83767c0.23324-0.23325 0.23326-0.59824 0-0.83152l-1.3509-1.3509a0.24317 0.24317 0 0 1-0.05026-0.27252c0.041275-0.090348 0.079725-0.18317 0.11392-0.27643a0.24317 0.24317 0 0 1 0.22785-0.15804h1.9121c0.3295 2e-7 0.58915-0.25966 0.58916-0.58916v-1.1839c0-0.3295-0.25965-0.5886-0.58916-0.5886h-1.9099a0.24317 0.24317 0 0 1-0.2284-0.1586c-0.034752-0.093281-0.072076-0.18387-0.11392-0.2742a0.24317 0.24317 0 0 1 0.048584-0.27475l1.3509-1.3503c0.23324-0.23323 0.23325-0.5988 0-0.83208l-0.83767-0.83767c-0.23324-0.23324-0.59824-0.23325-0.83152 0l-1.3509 1.3509a0.24317 0.24317 0 0 1-0.27252 0.050818c-0.090348-0.041274-0.18317-0.080283-0.27643-0.11448a0.24317 0.24317 0 0 1-0.15804-0.22785v-1.9121c0-0.3295-0.25967-0.5886-0.58916-0.5886zm0.59083 4.0923c1.2445 2.667e-4 2.2581 1.0138 2.2583 2.2583-2.668e-4 1.2445-1.0138 2.2581-2.2583 2.2584-1.2445-2.667e-4 -2.2581-1.0138-2.2584-2.2584 2.671e-4 -1.2445 1.0138-2.2581 2.2584-2.2583z" stroke-linecap="round" stroke-linejoin="round" stroke-width=".48629" style="paint-order:fill markers stroke"/>
</svg>
