<svg width="48.007" height="48" version="1.1" viewBox="0 0 12.702 12.7" xmlns="http://www.w3.org/2000/svg">
 <path d="m6.351 0.13849c-0.078254 0-0.15654 0.029924-0.21652 0.089917l-0.37672 0.37672-5.6668 5.6663c-0.11998 0.11999-0.11998 0.31359 0 0.43357l0.37672 0.3762c0.091899 0.091894 0.22647 0.11242 0.33848 0.063562l5.1361-5.1356 0.37672-0.3762c0.011155-0.011155 0.020263-0.013436 0.032556-0.013436 0.012371 0 0.020938 0.00239 0.032039 0.013436l0.37672 0.3762 5.1258 5.1263c0.11406 0.056077 0.25315 0.040864 0.3483-0.05426l0.37672-0.3762c0.11999-0.11999 0.11999-0.31359 0-0.43357l-2.0169-2.0169v-2.7213h-1.3327l0.020154 1.4092-2.3378-2.3373-0.3762-0.37672c-0.059964-0.059992-0.13824-0.089917-0.21652-0.089917zm5.167e-4 2.9456c-0.052308 0-0.18434 0.043804-0.2403 0.099735l-0.37672 0.37465-4.0985 4.1v4.6597c0 0.13488 0.12323 0.2434 0.27595 0.2434h3.053c-0.01473-0.05744-0.024805-0.11613-0.024805-0.17828v-2.7755c0-0.39743 0.31984-0.71779 0.71727-0.71779h1.3829c0.39743 0 0.71727 0.32036 0.71727 0.71779v2.7755c0 0.06215-0.01008 0.12084-0.024805 0.17828h3.0158l0.27492-0.2434 0.034623-4.67-4.0917-4.0897-0.37672-0.37465c-0.043223-0.04304-0.18449-0.099736-0.23823-0.099736z" stroke-width=".99999"/>
</svg>
