<svg width="12.7mm" height="12.7mm" version="1.1" viewBox="0 0 12.7 12.7" xmlns="http://www.w3.org/2000/svg">
 <g transform="translate(486.38 157.63)">
  <path d="m-484.79-152.87a1.5875 1.5875 0 0 0-1.5875 1.5874 1.5875 1.5875 0 0 0 1.5875 1.5874 1.5875 1.5875 0 0 0 1.5874-1.5874 1.5875 1.5875 0 0 0-1.5874-1.5874zm4.7624 0a1.5875 1.5875 0 0 0-1.5875 1.5874 1.5875 1.5875 0 0 0 1.5875 1.5874 1.5875 1.5875 0 0 0 9e-3 0c0 1e-5 5e-3 0 5e-3 0a1.5875 1.5875 0 0 0 6e-3 -7.7e-4 1.5875 1.5875 0 0 0 0.27284-0.0272c0.0318-6e-3 0.0621-0.0135 0.093-0.021a1.5875 1.5875 0 0 0 0.19763-0.0612c0.0365-0.015 0.0711-0.0312 0.1062-0.048a1.5875 1.5875 0 0 0 0.1434-0.0783c0.0427-0.0263 0.0832-0.0544 0.12329-0.0844a1.5875 1.5875 0 0 0 0.0992-0.0815c0.0459-0.0408 0.0885-0.0837 0.12945-0.12945a1.5875 1.5875 0 0 0 0.072-0.0876c0.0376-0.049 0.0727-0.0993 0.1047-0.15271a1.5875 1.5875 0 0 0 0.0636-0.11624c0.0226-0.0465 0.043-0.0937 0.0612-0.14265a1.5875 1.5875 0 0 0 0.0535-0.17131c7e-3 -0.0315 0.0159-0.0624 0.0217-0.0947a1.5875 1.5875 0 0 0 0.027-0.26819c4e-5 -3e-3 0-8e-3 0-0.0105v-4e-3a1.5875 1.5875 0 0 0 0-8e-3 1.5875 1.5875 0 0 0-1.5873-1.5874zm4.7624 0a1.5875 1.5875 0 0 0-1.5875 1.5874 1.5875 1.5875 0 0 0 1.5875 1.5874 1.5875 1.5875 0 0 0 7e-3 0c0 1e-5 5e-3 0 5e-3 0 5e-3 0 7e-3 -7.7e-4 0.0105-7.7e-4a1.5875 1.5875 0 0 0 0.2682-0.0272c0.0318-6e-3 0.0627-0.0135 0.0939-0.021a1.5875 1.5875 0 0 0 0.17593-0.055c0.0457-0.0171 0.0897-0.0369 0.13334-0.0581a1.5875 1.5875 0 0 0 0.1233-0.0666c0.0528-0.0316 0.1026-0.0664 0.15116-0.10379a1.5875 1.5875 0 0 0 0.0876-0.0721c0.0457-0.0408 0.0887-0.0836 0.12945-0.12945a1.5875 1.5875 0 0 0 0.0815-0.0991c0.0294-0.039 0.0573-0.0784 0.0829-0.12014a1.5875 1.5875 0 0 0 0.0815-0.14955c0.0159-0.0336 0.0321-0.0667 0.0457-0.10154a1.5875 1.5875 0 0 0 0.0619-0.19998c7e-3 -0.0307 0.0152-0.0609 0.021-0.0922a1.5875 1.5875 0 0 0 0.0279-0.29066 1.5875 1.5875 0 0 0-1.5875-1.5875z"
  style="paint-order:markers fill stroke"/>
 </g>
</svg>
