<svg width="48.007" height="48" version="1.1" viewBox="0 0 12.702 12.7" xmlns="http://www.w3.org/2000/svg">
 <g transform="matrix(1 0 0 1 -58.958 -39.935)">
  <path transform="scale(.26458)" d="m226.85 162.48c-1.8137 0-3.2734 1.4597-3.2734 3.2734v24.436c0 1.8137 1.4597 3.2734 3.2734 3.2734h39.977c1.8137 0 3.2734-1.4597 3.2734-3.2734v-24.436c0-1.8137-1.4597-3.2734-3.2734-3.2734h-0.7207v26.646c-7.1816-3.8103-13.264-3.9335-19.266 0-6.0021-3.9335-12.086-3.8103-19.268 0v-26.646z" stroke-linecap="round" stroke-linejoin="round" stroke-width="1.7008" style="paint-order:fill markers stroke"/>
  <path d="m60.211 42.448c1.1358-1.4051 4.0519-1.4365 5.0978 0v7.5905c-1.588-1.0407-3.1976-1.0081-5.0978 0z" stroke-linecap="round" stroke-linejoin="round" stroke-width=".45" style="paint-order:fill markers stroke"/>
  <g stroke-width=".45">
   <path d="m61.093 43.987c0.85367-0.78763 2.5617-0.74704 3.1855-0.05343"/>
   <path d="m61.093 45.36c0.85367-0.78763 2.5617-0.74704 3.1855-0.05343"/>
   <path d="m61.093 46.65c0.85367-0.78763 2.5617-0.74704 3.1855-0.05343"/>
   <path d="m61.093 47.873c0.85367-0.78763 2.5617-0.74704 3.1855-0.05343"/>
  </g>
  <path d="m70.407 42.448c-1.1358-1.4051-4.0519-1.4365-5.0978 0v7.5905c1.588-1.0407 3.1976-1.0081 5.0978 0z" stroke-linecap="round" stroke-linejoin="round" stroke-width=".45" style="paint-order:fill markers stroke"/>
  <g stroke-width=".45">
   <path d="m69.524 43.987c-0.85367-0.78763-2.5617-0.74704-3.1855-0.05343"/>
   <path d="m69.524 45.36c-0.85367-0.78763-2.5617-0.74704-3.1855-0.05343"/>
   <path d="m69.524 46.65c-0.85367-0.78763-2.5617-0.74704-3.1855-0.05343"/>
   <path d="m69.524 47.873c-0.85367-0.78763-2.5617-0.74704-3.1855-0.05343"/>
  </g>
 </g>
</svg>
