<svg width="225.12" height="224.33" version="1.1" viewBox="0 0 59.564 59.355" xmlns="http://www.w3.org/2000/svg" xmlns:xlink="http://www.w3.org/1999/xlink">
 <defs>
  <linearGradient id="linearGradient2518" x1="622.4" x2="640.89" y1="1135.9" y2="1128" gradientTransform="matrix(3.493 0 -.33443 3.493 -1938 -3848.4)" gradientUnits="userSpaceOnUse">
   <stop stop-color="#6bc0e0" offset="0"/>
   <stop stop-color="#29a0ed" offset=".23745"/>
   <stop stop-color="#ea28c4" offset=".59556"/>
   <stop stop-color="#fd5587" offset=".79043"/>
   <stop stop-color="#ff7f4c" offset="1"/>
  </linearGradient>
 </defs>
 <g transform="translate(136.8 -58.119)">
  <path d="m-107.31 58.119-1.5344 0.09566 0.12819 2.0867 1.5073-0.08687h0.49975l0.0471-2.0957h-0.55961zm30.074 0.20582-26.661 23.091-17.239-7.8412 7.8413 11.41-20.396 28.695-2.695 3.7925 26.659-23.091 16.912 7.6735-7.5146-11.242zm-23.015 0.49094-0.40259 2.0596 0.46395 0.08872h0.0361l1.4387 0.41515 0.57938-1.9964-1.4729-0.42421-0.08872-0.0342zm-15.029 0.5596-1.9712 0.64075-0.0813 0.0342h-0.0213l0.51811 1.2149 0.24001 0.7365 0.061-0.01941h0.0194l1.8827-0.61376zm23.183 2.5307-1.0776 1.7942 1.8015 1.0776 1.0777-1.7942zm-31.008 1.0704-1.0704 0.6877-0.0758 0.05545-0.64796 0.50545 1.296 1.6499 0.57402-0.43502 0.0342-0.03604 0.0416-0.03419 0.98917-0.64084zm-6.5001 5.6752-0.417 0.47107-0.061 0.07763-0.87364 1.1734 1.6715 1.2545 0.82485-1.0993 0.0222-0.0342 0.0342-0.04159 0.361-0.40258zm48.457 3.8087-1.8683 0.95488 0.95488 1.87 1.8683-0.95488zm-53.118 3.5614-0.7852 1.9441 1.9368 0.7852 0.79241-1.9386zm56.235 4.4928-2.0524 0.43327 0.3683 1.7184 0.0092 0.03604 0.02033 0.21303 2.0812-0.25998-0.0342-0.29963-0.02126-0.08688zm-58.555 3.8087-0.16423 1.2419-9e-3 0.08872-0.0416 0.83936 2.0956 0.09381 0.0268-0.74731 9e-3 -0.03604 0.15712-1.2077zm57.185 4.677-0.03419 0.75452-0.0092 0.03419-0.15702 1.2076 2.074 0.27255 0.16432-1.2418 0.01294-0.08687 0.03604-0.84657zm-55.024 3.6823-2.0794 0.25813 0.0397 0.30148 0.0148 0.08688 0.3755 1.7545 2.0469-0.43687-0.3682-1.7184-9e-3 -0.03604zm53.427 4.1535-0.79066 1.9441 1.9442 0.7852 0.7852-1.9368zm-51.051 3.473-1.87 0.95489 0.95664 1.8628 1.8683-0.95488zm47.225 3.6481-0.82494 1.1011-0.417 0.46931 1.5632 1.3989 0.41524-0.47106 0.061-0.0684 0.88086-1.1734zm-5.677 5.7383-0.64805 0.50545-0.99453 0.64259 1.139 1.76 1.0704-0.69675 0.07579-0.0564 0.64805-0.50369zm-32.235 1.1138-1.0776 1.7997 1.8014 1.0794 1.0776-1.8014zm25.23 2.7817-0.06839 0.0148h-0.0092l-1.8971 0.62097 0.64981 1.9928 1.9711-0.64075 0.08133-0.036h0.02126l-0.50535-1.2004zm-17.89 0.62273-0.57762 1.991 1.473 0.42421 0.0887 0.0342 0.55231 0.10831 0.40258-2.0542-0.46395-0.0869h-0.0342zm10.004 1.0795-1.4477 0.0795h-0.55776l-0.049 2.1012h0.64821l1.5344-0.0869z" fill="url(#linearGradient2518)"/>
 </g>
</svg>
